<?xml version="1.0" standalone="no"?>
<!DOCTYPE svg PUBLIC "-//W3C//DTD SVG 20010904//EN"
 "http://www.w3.org/TR/2001/REC-SVG-20010904/DTD/svg10.dtd">
<svg version="1.0" xmlns="http://www.w3.org/2000/svg"
 width="525.000000pt" height="525.000000pt" viewBox="0 0 525.000000 525.000000"
 preserveAspectRatio="xMidYMid meet">
<metadata>
</metadata>
<g transform="translate(0.000000,525.000000) scale(0.100000,-0.100000)"
fill="#000000" stroke="none">
<path d="M1752 5095 c-100 -36 -163 -84 -220 -167 -55 -79 -75 -149 -74 -250
2 -227 179 -418 401 -431 49 -2 36 30 126 -312 13 -49 33 -125 44 -167 23 -84
44 -166 86 -323 15 -55 28 -103 30 -106 2 -3 7 -19 10 -35 3 -16 12 -54 20
-84 9 -30 17 -62 19 -70 12 -47 37 -141 42 -154 3 -9 -3 -17 -18 -21 -130 -40
-349 -169 -473 -277 l-43 -38 -58 68 c-33 37 -63 72 -69 78 -37 40 -147 165
-169 191 l-27 33 20 37 c30 56 40 106 36 179 -7 123 -78 229 -194 286 -67 33
-215 33 -283 0 -65 -33 -130 -99 -164 -168 -39 -81 -40 -192 -2 -276 49 -107
148 -182 261 -197 60 -8 155 7 205 33 l30 15 98 -112 c55 -61 119 -134 144
-162 94 -104 91 -84 23 -172 -68 -88 -148 -223 -189 -318 -15 -36 -30 -65 -35
-65 -6 0 -560 267 -566 273 -1 2 3 19 10 39 13 37 14 116 3 178 -12 63 -54
139 -105 190 -247 247 -669 76 -669 -271 0 -173 104 -319 264 -374 136 -46
283 -15 395 84 l47 41 73 -36 c41 -20 174 -86 297 -145 123 -60 221 -112 218
-117 -3 -5 -8 -22 -11 -38 -3 -16 -8 -36 -10 -44 -1 -8 -6 -40 -10 -70 -4 -30
-9 -62 -11 -70 -1 -8 -3 -32 -3 -52 l-1 -36 -481 0 c-442 0 -482 -2 -500 -18
-23 -21 -25 -67 -3 -88 18 -19 -27 -17 532 -18 l452 0 1 -37 c2 -47 7 -89 24
-195 13 -75 66 -232 114 -332 120 -251 293 -448 528 -601 117 -77 319 -166
423 -187 14 -3 61 -12 105 -22 87 -18 346 -24 450 -11 364 46 721 249 956 542
114 143 244 411 274 567 15 76 25 141 31 198 3 36 8 68 10 71 2 4 238 6 525 6
567 1 548 -1 554 56 3 26 -26 67 -48 67 -7 1 -243 1 -524 1 l-513 1 -1 37 c-1
63 -24 199 -46 284 -9 32 -13 60 -10 63 3 4 59 25 124 49 l118 43 46 -48 c58
-60 111 -94 175 -113 244 -71 492 101 506 353 11 198 -132 378 -324 408 -182
28 -347 -60 -426 -228 -23 -48 -27 -68 -27 -156 l0 -101 -118 -43 c-68 -25
-121 -39 -126 -34 -5 5 -26 43 -47 84 -50 99 -146 245 -184 280 -3 3 -18 20
-35 38 l-29 33 383 383 384 384 41 -14 c143 -51 313 22 383 164 56 114 30 265
-62 357 -164 163 -455 91 -520 -129 -28 -93 -11 -208 39 -271 l22 -27 -357
-357 c-196 -196 -368 -367 -382 -380 l-26 -23 -28 26 c-74 70 -360 236 -406
236 -7 0 -21 6 -30 13 -15 11 -15 19 9 112 48 189 39 172 81 173 215 8 370
226 308 433 -64 212 -312 307 -500 191 -205 -126 -215 -420 -19 -561 l51 -37
-23 -93 c-48 -191 -40 -174 -82 -167 -131 24 -232 33 -352 30 -74 -1 -148 -5
-165 -9 -108 -21 -139 -24 -145 -14 -4 5 -44 150 -90 322 -84 319 -102 384
-189 709 -28 104 -51 191 -51 195 0 5 26 20 58 36 155 74 255 253 239 429 -25
279 -315 467 -575 373z m269 -131 c241 -109 243 -444 3 -564 -73 -37 -187 -36
-266 3 -191 94 -235 347 -86 497 46 47 79 66 150 84 68 17 129 11 199 -20z
m814 -2039 c382 -37 726 -236 952 -548 88 -123 183 -323 209 -442 23 -103 36
-185 38 -245 l1 -25 -1332 -2 -1333 -1 4 31 c3 18 7 55 10 82 14 115 46 230
97 349 193 450 610 754 1099 802 36 4 66 7 67 8 4 3 129 -3 188 -9z m-2339
-164 c103 -47 159 -134 159 -246 0 -55 -6 -81 -25 -119 -82 -161 -301 -195
-428 -65 -134 137 -79 373 103 437 49 17 145 14 191 -7z m4302 -170 c89 -46
143 -127 148 -224 9 -203 -199 -342 -380 -253 -220 108 -192 420 44 497 42 14
142 3 188 -20z"/>
</g>
</svg>
