<?xml version="1.0" encoding="utf-8"?>
<!-- Generator: Adobe Illustrator 24.0.1, SVG Export Plug-In . SVG Version: 6.00 Build 0)  -->
<svg version="1.1" id="Livello_1" xmlns="http://www.w3.org/2000/svg" xmlns:xlink="http://www.w3.org/1999/xlink" x="0px" y="0px"
	 viewBox="0 0 306.3 112" style="enable-background:new 0 0 306.3 112;" xml:space="preserve">
<style type="text/css">
	.st0{fill:#FFFFFF;}
</style>
<g>
	<path class="st0" d="M191.3,74.6c-3.5,10.7-9.9,18.8-20.6,23c-13.4,5.2-28.9,0.3-37.3-11.6c-0.4-0.5-0.8-1.1-1.3-1.8
		c-7.4,10.7-17.5,16.4-30.6,15.2c-13.2-1.2-21.7-9.2-27.3-21c-1.3,3.1-2.6,6.1-3.9,9.1c-0.8,1.9-1.6,3.7-2.3,5.6
		c-1,2.7-3.4,4.2-6.2,3.8c-2.5-0.4-4.3-2.5-4.3-5.4c0-12.4,0-24.8,0-37.1c0-0.8,0-1.6,0-2.4c-0.1-0.1-0.2-0.1-0.3-0.2
		c-0.3,0.4-0.7,0.9-1,1.3c-4,5.6-8.1,11.2-12.1,16.8c-2.8,3.9-7.1,3.8-9.9-0.1c-4.3-6-8.5-11.9-12.9-18C20.8,52.4,21,53,21,53.5
		c0,12.5,0,25,0,37.5c0,3.2-1.8,5.5-4.6,5.9c-3,0.4-6-1.8-6-5.5c0.1-17.2,0.1-34.4,0.1-51.6c0-1.5,0-3.1,0-4.6
		c0-2.7,1.2-4.4,3.5-5.1c2.3-0.8,4.7,0,6.2,2c4,5.5,8,11.1,12,16.6c2,2.8,4.1,5.5,6,8.4c0.8,1.2,1.1,1.2,2,0
		c5.9-8.3,11.9-16.6,18-24.9c2.4-3.3,6.9-3.2,9.1,0.1c0.7,1.1,0.8,2.2,0.8,3.4c0,9.2,0,18.4,0,27.6c0,0.5,0,0.9,0.3,1.5
		c1-2.3,2-4.6,3-6.8c2.2-4.9,3.9-10,7.3-14.2c8-9.8,17.9-14.6,30.4-12.8c9.3,1.3,16.6,6.1,22,13.8c0.8,1.1,1,1.2,1.9,0
		c7.8-10.6,18.2-15.6,31.3-13.8c11.1,1.6,18.7,8.2,24,17.8c0.6,1,1.1,2,1.6,3C192.7,59.2,193.2,66.8,191.3,74.6z M82.8,65
		c0,3.5,0.7,6.9,2.1,10.1c5.9,13.2,20.2,17.4,31.1,10.2c10.8-7.1,13.9-21.9,7.1-33c-5.9-9.7-17.6-13.5-27-8.8
		C87.3,47.9,83.2,55.4,82.8,65z M137.7,67.2c0.1,4.4,2.2,10.2,6.9,15c6.1,6.2,15,8.2,22.3,5.1c13.1-5.4,18.5-21.3,11.5-34
		c-5.5-10.2-16.6-14.3-27-10C143.4,46.5,137.7,55.4,137.7,67.2z"/>
	<path class="st0" d="M191.3,74.6c1.9-7.7,1.5-15.3-1.3-22.8c2.2-5.2,4.4-10.5,6.6-15.7c0.9-2.2,2.8-3,5.1-2.9
		c2.1,0.1,3.7,1.2,4.6,3.2c3.9,9.3,7.8,18.5,11.7,27.8c2.2,5.2,4.4,10.5,6.7,15.7c0.1,0.1,0.2,0.2,0.4,0.5c1.5-3.5,3-6.9,4.4-10.3
		c4.5-10.6,8.9-21.2,13.4-31.7c1.7-3.9,3.4-7.8,5-11.8c0.4-1,0.7-1.1,1.5-0.4c2,1.8,4.4,3,7,3.3c1.4,0.1,1.5,0.5,1,1.7
		c-2.2,5.1-4.4,10.3-6.5,15.4c-5,11.7-9.9,23.5-14.9,35.2c-2.1,4.9-4.1,9.8-6.2,14.6c-0.9,2.1-2.5,3.2-4.9,3.2s-4-1.3-4.9-3.4
		c-3.1-7.2-6.1-14.5-9.2-21.8c-3.1-7.3-6.2-14.7-9.4-22.3c-1.7,3.8-3.2,7.3-4.7,10.9c-1.5,3.5-3,7-4.6,10.5
		C191.8,73.9,191.8,74.4,191.3,74.6z"/>
	<path class="st0" d="M300.2,94.4c0,2.7-1.4,4.5-3.9,5.1c-2.5,0.5-5-0.8-6-3.1c-1.6-3.8-3.2-7.5-4.7-11.4c-0.5-1.2-1.1-1.6-2.4-1.6
		c-7.7,0.1-15.5,0.1-23.2,0c-1.1,0-1.7,0.3-2.2,1.4c-1.5,3.8-3.2,7.6-4.8,11.3c-1.3,3-4.3,4.3-7.2,3c-2.7-1.1-3.9-4.1-2.7-7
		c4.6-10.8,9.2-21.7,13.7-32.5c3.2-7.6,6.5-15.2,9.7-22.8c0.9-2.2,2.4-3.5,4.8-3.6s4.1,1.1,5.1,3.2c1.4,3.1,2.7,6.3,4,9.5
		c4.9,11.7,9.9,23.4,14.8,35.1c1.6,3.7,3.1,7.5,4.7,11.2C300.3,92.9,300.2,93.7,300.2,94.4z M271.6,52.1c-2.9,6.8-5.6,13.3-8.3,19.8
		c-0.4,1,0.4,0.8,0.9,0.8c5,0,10,0,15,0c1,0,1.1-0.3,0.7-1.1c-1.4-3.3-2.8-6.5-4.2-9.8C274.3,58.6,273,55.5,271.6,52.1z"/>
	<path class="st0" d="M250.1,15.7c0.1-4.7,3.7-8.2,8.5-8.2c4.6,0,8.3,3.8,8.2,8.5c-0.1,4.6-3.9,8.3-8.5,8.2
		C253.7,24.2,250.1,20.4,250.1,15.7z"/>
</g>
</svg>
